<svg width="353" height="353" viewBox="0 0 353 353" fill="none" xmlns="http://www.w3.org/2000/svg">
<path d="M224.184 47.446C249.691 56.879 271.827 73.6638 287.795 95.6777C303.762 117.692 312.842 143.946 313.888 171.121C314.934 198.296 307.898 225.17 293.671 248.346C279.443 271.523 258.662 289.959 233.956 301.325C209.25 312.69 181.728 316.475 154.872 312.199C128.015 307.923 103.029 295.78 83.0742 277.304C63.1191 258.828 49.0909 234.85 42.7636 208.401C36.4362 181.952 38.0938 154.221 47.5268 128.715L99.9382 148.098C94.3388 163.239 93.3548 179.7 97.1107 195.399C100.867 211.099 109.194 225.332 121.039 236.3C132.884 247.267 147.715 254.475 163.657 257.013C179.599 259.551 195.936 257.305 210.601 250.558C225.267 243.812 237.602 232.868 246.048 219.111C254.493 205.354 258.67 189.401 258.049 173.27C257.428 157.139 252.038 141.555 242.56 128.487C233.082 115.42 219.942 105.457 204.801 99.8573L224.184 47.446Z" fill="#6DEDB4"/>
<path d="M42.4237 207.133C38.3609 189.38 37.8653 170.996 40.9658 153.05C44.0662 135.104 50.701 117.952 60.4848 102.591C70.2686 87.2306 83.0065 73.9664 97.9589 63.569C112.911 53.1716 129.78 45.8482 147.586 42.024L159.32 96.6589C148.751 98.9289 138.737 103.276 129.862 109.448C120.986 115.62 113.425 123.493 107.617 132.611C101.81 141.73 97.8712 151.911 96.0307 162.563C94.1903 173.216 94.4845 184.129 96.8962 194.667L42.4237 207.133Z" fill="#5EBFF9"/>
<path d="M147.109 42.1275C165.397 38.1317 184.308 37.9123 202.684 41.4827C221.06 45.0531 238.513 52.338 253.974 62.8912L222.472 109.046C213.294 102.781 202.934 98.4569 192.026 96.3376C181.118 94.2182 169.892 94.3485 159.037 96.7203L147.109 42.1275Z" fill="#56BC69"/>
</svg>
