<svg id="Icon_material-lightbulb-outline" data-name="Icon material-lightbulb-outline" xmlns="http://www.w3.org/2000/svg" width="229" height="319.271" viewBox="0 0 229 319.271">
  <g id="Icon_material-lightbulb-outline-2" data-name="Icon material-lightbulb-outline">
    <path id="Icon_material-lightbulb-outline-3" data-name="Icon material-lightbulb-outline" d="M72.929,306.308a16.211,16.211,0,0,0,16.357,15.964h65.429a16.211,16.211,0,0,0,16.357-15.964V290.345H72.929ZM122,3C58.861,3,7.5,53.126,7.5,114.745c0,37.993,19.465,71.357,49.071,91.631v36.078a16.211,16.211,0,0,0,16.357,15.964h98.143a16.211,16.211,0,0,0,16.357-15.964V206.376C217.035,186.1,236.5,152.738,236.5,114.745,236.5,53.126,185.139,3,122,3Zm46.618,177.2-13.9,9.578V226.49H89.286V189.774l-13.9-9.578C53.3,165.19,40.214,140.766,40.214,114.745c0-44.059,36.64-79.818,81.786-79.818s81.786,35.758,81.786,79.818C203.786,140.766,190.7,165.19,168.618,180.2Z" transform="translate(-7.5 -3)" fill="#f6ce54"/>
  </g>
</svg>
